<svg xmlns="http://www.w3.org/2000/svg" version="1.1" xmlns:xlink="http://www.w3.org/1999/xlink" xmlns:svgjs="http://svgjs.dev/svgjs" width="1500" height="1500" viewBox="0 0 1500 1500"><rect width="1500" height="1500" fill="#ffffff"></rect><g transform="matrix(0.6666666666666666,0,0,0.6666666666666666,249.3941577080513,480.324983487219)"><svg viewBox="0 0 396 214" data-background-color="#ffffff" preserveAspectRatio="xMidYMid meet" height="810" width="1500" xmlns="http://www.w3.org/2000/svg" xmlns:xlink="http://www.w3.org/1999/xlink"><g id="tight-bounds" transform="matrix(1,0,0,1,0.24008645238836834,-0.12878975234232826)"><svg viewBox="0 0 395.52 214.25757950468466" height="214.25757950468466" width="395.52"><g><svg viewBox="0 0 395.52 214.25757950468466" height="214.25757950468466" width="395.52"><g transform="matrix(1,0,0,1,0,135.92645936981876)"><svg viewBox="0 0 395.52 78.33112013486588" height="78.33112013486588" width="395.52"><g id="textblocktransform"><svg viewBox="0 0 395.52 78.33112013486588" height="78.33112013486588" width="395.52" id="textblock"><g><svg viewBox="0 0 395.52 78.33112013486588" height="78.33112013486588" width="395.52"><g transform="matrix(1,0,0,1,0,0)"><svg width="395.52" viewBox="-0.9809382211912665 -27.63740973776031 221.7499441586913 43.91667795895155" height="78.33112013486588" data-palette-color="#ffffff"><path d="M10.452 15.314v0l-5.425 0.961c-0.125 0.022-0.201-0.046-0.229-0.203v0l-5.775-32.877c-0.022-0.125 0.046-0.201 0.203-0.229v0l5.327-0.944c0.151-0.027 0.238 0.022 0.26 0.147v0l2.257 13.026 7.178-1.272-2.306-13.017c-0.022-0.125 0.029-0.198 0.154-0.22v0l5.327-0.944c0.151-0.027 0.238 0.022 0.26 0.147v0l5.922 32.851c0.028 0.158-0.037 0.25-0.195 0.278v0l-5.376 0.952c-0.151 0.027-0.24-0.039-0.268-0.196v0l-2.492-14.061-7.178 1.272 2.491 14.061c0.028 0.158-0.017 0.247-0.135 0.268zM42.702 10.331v0l-15.559 2.171c-0.125 0.018-0.199-0.053-0.221-0.211v0l-4.565-33.066c-0.018-0.125 0.036-0.197 0.162-0.215v0l15.46-2.158c0.125-0.018 0.199 0.053 0.222 0.212v0l0.75 5.378c0.018 0.125-0.036 0.197-0.162 0.214v0l-9.874 1.378 1.051 7.527 9.874-1.378c0.125-0.018 0.197 0.036 0.214 0.162v0l0.81 5.44c0.018 0.125-0.036 0.197-0.162 0.215v0l-9.924 1.385 1.174 8.408 9.924-1.385c0.125-0.018 0.199 0.053 0.221 0.212v0l0.767 5.496c0.018 0.125-0.036 0.197-0.162 0.215zM44.894 9.857v0l2.627-33.818c0.02-0.129 0.094-0.2 0.22-0.214v0l7.004-0.711c0.126-0.013 0.212 0.042 0.258 0.165v0l9.132 32.625c0.029 0.158-0.025 0.244-0.165 0.258v0l-5.363 0.544c-0.153 0.015-0.247-0.055-0.283-0.212v0l-0.876-3.49-6.587 0.669-0.157 3.594c0.003 0.161-0.069 0.248-0.215 0.263v0l-5.382 0.547c-0.126 0.013-0.197-0.06-0.213-0.22zM55.958-0.061l-3.357-13.369-0.471-1.762-0.027 1.812-0.791 13.79zM82.498 6.879v0l-15.673 1.078c-0.126 0.009-0.195-0.067-0.206-0.227v0l-2.235-33.255c-0.011-0.16 0.063-0.245 0.223-0.256v0l5.397-0.371c0.153-0.011 0.235 0.064 0.246 0.224v0l1.842 27.528 9.996-0.686c0.153-0.011 0.235 0.064 0.246 0.223v0l0.377 5.487c0.011 0.16-0.06 0.245-0.213 0.255zM92.36 6.554v0l-5.476 0.215c-0.147 0.006-0.223-0.071-0.229-0.232v0l-1.085-27.688-6.305 0.247c-0.153 0.006-0.233-0.068-0.239-0.221v0l-0.173-5.438c-0.005-0.127 0.056-0.192 0.182-0.197v0l18.446-0.723c0.173-0.007 0.262 0.053 0.267 0.18v0l0.213 5.436c0.006 0.153-0.054 0.232-0.181 0.237v0l-6.375 0.25 1.135 27.687c0.006 0.16-0.054 0.242-0.18 0.247zM106.551 6.25v0l-5.509 0.033c-0.127 0.001-0.19-0.079-0.192-0.239v0l-0.149-33.38c-0.001-0.127 0.079-0.19 0.239-0.191v0l5.41-0.033c0.153-0.001 0.23 0.062 0.231 0.189v0l0.029 13.22 7.29-0.043-0.079-13.22c-0.001-0.127 0.062-0.19 0.189-0.191v0l5.41-0.032c0.153-0.001 0.23 0.062 0.231 0.188v0l0.299 33.379c0.001 0.16-0.079 0.24-0.239 0.241v0l-5.46 0.033c-0.153 0.001-0.23-0.079-0.231-0.239v0l-0.085-14.279-7.29 0.043 0.085 14.28c0.001 0.16-0.059 0.24-0.179 0.241zM144.407 7.625v0c-1.757-0.096-3.338-0.624-4.741-1.582v0c-1.389-0.964-2.466-2.215-3.229-3.752-0.763-1.544-1.095-3.231-0.995-5.062v0l0.879-15.134c0.098-1.797 0.597-3.399 1.496-4.806v0c0.906-1.426 2.106-2.545 3.599-3.358 1.493-0.813 3.125-1.171 4.896-1.074v0c1.797 0.098 3.375 0.619 4.731 1.562v0c1.377 0.95 2.447 2.187 3.212 3.711 0.758 1.517 1.087 3.184 0.988 5.001v0l-0.122 2.227c-0.007 0.126-0.074 0.186-0.2 0.179v0l-5.442-0.298c-0.126-0.007-0.186-0.074-0.179-0.2v0l0.122-2.227c0.059-1.072-0.24-2.013-0.897-2.823-0.65-0.81-1.494-1.244-2.533-1.3v0c-1.158-0.063-2.065 0.281-2.72 1.032-0.662 0.758-1.022 1.657-1.079 2.695v0l-0.83 15.138c-0.065 1.185 0.231 2.173 0.889 2.963 0.651 0.783 1.476 1.203 2.475 1.257v0c1.038 0.057 1.926-0.308 2.664-1.096 0.745-0.794 1.145-1.703 1.201-2.728v0l0.123-2.247c0.007-0.126 0.074-0.186 0.201-0.179v0l5.491 0.301c0.126 0.007 0.186 0.074 0.18 0.2v0l-0.123 2.246c-0.1 1.817-0.616 3.451-1.551 4.903v0c-0.947 1.437-2.157 2.563-3.63 3.376-1.467 0.814-3.092 1.173-4.876 1.075zM155.198 7.559v0l9.085-32.681c0.045-0.123 0.13-0.179 0.257-0.167v0l7.01 0.65c0.126 0.012 0.2 0.082 0.221 0.211v0l2.685 33.772c-0.001 0.161-0.072 0.234-0.212 0.222v0l-5.367-0.498c-0.153-0.014-0.232-0.102-0.236-0.263v0l-0.19-3.593-6.591-0.611-0.847 3.497c-0.028 0.158-0.115 0.23-0.261 0.217v0l-5.387-0.499c-0.126-0.012-0.182-0.097-0.167-0.257zM167.965-0.045l-0.723-13.765-0.123-1.819-0.375 1.772-3.43 13.381zM182.497 10.617v0l-5.464-0.703c-0.126-0.016-0.178-0.104-0.158-0.263v0l4.363-33.093c0.016-0.126 0.087-0.18 0.213-0.165v0l9.74 1.255c1.739 0.224 3.284 0.857 4.635 1.898v0c1.346 1.034 2.363 2.321 3.052 3.861 0.69 1.534 0.918 3.204 0.686 5.009v0c-0.152 1.177-0.471 2.221-0.959 3.133v0c-0.481 0.913-1.004 1.665-1.571 2.258-0.561 0.6-1.057 1.03-1.487 1.29v0c1.49 2.155 2.068 4.535 1.732 7.14v0l-1.223 9.885c-0.02 0.159-0.11 0.228-0.268 0.207v0l-5.465-0.704c-0.126-0.016-0.182-0.071-0.171-0.163v0l1.285-9.977c0.15-1.164-0.127-2.221-0.831-3.172-0.704-0.951-1.655-1.504-2.852-1.658v0l-3.173-0.409-1.874 14.156c-0.02 0.159-0.09 0.23-0.21 0.215zM190.447-16.58v0l-4.146-0.534-0.976 7.578 4.146 0.534c0.985 0.127 1.916-0.13 2.791-0.77 0.868-0.634 1.371-1.487 1.509-2.558v0c0.131-1.018-0.132-1.95-0.789-2.794-0.658-0.838-1.503-1.323-2.535-1.456zM215.116 15.54v0l-15.497-2.578c-0.125-0.021-0.174-0.11-0.148-0.268v0l5.526-32.919c0.021-0.125 0.094-0.177 0.219-0.156v0l15.398 2.561c0.125 0.021 0.174 0.11 0.148 0.268v0l-0.891 5.356c-0.021 0.125-0.094 0.177-0.218 0.156v0l-9.835-1.635-1.247 7.497 9.835 1.635c0.125 0.021 0.177 0.094 0.156 0.219v0l-0.853 5.434c-0.021 0.125-0.094 0.177-0.219 0.156v0l-9.884-1.644-1.393 8.375 9.884 1.644c0.125 0.021 0.174 0.11 0.148 0.268v0l-0.91 5.475c-0.021 0.125-0.094 0.177-0.219 0.156z" opacity="1" transform="matrix(1,0,0,1,0,0)" fill="#ffffff" class="wordmark-text-0" data-fill-palette-color="primary" id="text-0"></path></svg></g></svg></g></svg></g></svg></g><g transform="matrix(1,0,0,1,157.1385586727041,0)"><svg viewBox="0 0 81.2428826545918 112.79837961660955" height="112.79837961660955" width="81.2428826545918"><g><svg xmlns="http://www.w3.org/2000/svg" xmlns:xlink="http://www.w3.org/1999/xlink" version="1.1" x="0" y="0" viewBox="11.799999999999997 9.3 81.10000000000001 112.60000000000001" enable-background="new 0 0 108.3 129.2" xml:space="preserve" height="112.79837961660955" width="81.2428826545918" class="icon-icon-0" data-fill-palette-color="accent" id="icon-0"><g fill="#16b364" data-fill-palette-color="accent"><g fill="#16b364" data-fill-palette-color="accent"><g fill="#16b364" data-fill-palette-color="accent"><g fill="#16b364" data-fill-palette-color="accent"><path fill="#16b364" d="M71 121.4c-4 0-7.2-1.5-8.9-2.9l-0.3-0.3L50.2 106l3.8-3.6 11.4 12.1c0.9 0.6 6.3 4 12.9-1 2-1.5 3.1-3.2 3.3-5 0.3-3.2-2.1-6.1-2.2-6.1l-13.6-14 3.8-3.7 13.6 14.1c0.2 0.3 4.1 4.7 3.5 10.2-0.3 3.4-2.1 6.3-5.4 8.7C77.8 120.5 74.2 121.4 71 121.4z" data-fill-palette-color="accent"></path></g></g></g><g fill="#16b364" data-fill-palette-color="accent"><g fill="#16b364" data-fill-palette-color="accent"><g fill="#16b364" data-fill-palette-color="accent"><path fill="#16b364" d="M72 109.4c-0.5 0-0.9-0.2-1.3-0.5l-12.4-13c-0.7-0.7-0.6-1.8 0.1-2.5 0.7-0.7 1.8-0.6 2.5 0.1l12.4 13c0.7 0.7 0.6 1.8-0.1 2.5C72.8 109.2 72.4 109.4 72 109.4z" data-fill-palette-color="accent"></path></g></g></g><g fill="#16b364" data-fill-palette-color="accent"><g fill="#16b364" data-fill-palette-color="accent"><g fill="#16b364" data-fill-palette-color="accent"><path fill="#16b364" d="M30.1 109.7c-0.4 0-0.9-0.2-1.2-0.5-0.7-0.7-0.7-1.8 0-2.5L67.8 67c1.8-1.6 6.5-6 7.7-7.8 1.7-2.5 1.8-6 1.8-9.4C77.2 36.1 66.1 25 52.4 25S27.6 36.1 27.6 49.8c0 5.3 1 9.2 3 12 3 4.1 14.2 14.9 14.3 15 0.7 0.7 0.7 1.8 0 2.5-0.7 0.7-1.8 0.7-2.5 0C42 78.8 31 68.2 27.8 63.9c-2.5-3.4-3.7-8-3.7-14 0-15.6 12.7-28.3 28.3-28.3s28.3 12.7 28.3 28.3c0 3.9-0.2 8-2.4 11.3-1.6 2.5-7.5 7.8-8.2 8.4l-38.8 39.6C31 109.5 30.5 109.7 30.1 109.7z" data-fill-palette-color="accent"></path></g></g></g><g fill="#16b364" data-fill-palette-color="accent"><g fill="#16b364" data-fill-palette-color="accent"><g fill="#16b364" data-fill-palette-color="accent"><path fill="#16b364" d="M30.6 121.9c-3 0-6.2-0.9-9.5-3.4-3.2-2.5-5.1-5.4-5.5-8.8-0.7-5.5 2.8-10 2.9-10.2l0.2-0.3 13.1-12.7-5-5.3c-9.5-7.7-15-19.2-15-31.5C11.9 27.5 30 9.3 52.4 9.3s40.5 18.2 40.5 40.5c0 13.6-5.3 25-14.9 32.2l-36.6 35.7C39.3 119.7 35.3 121.9 30.6 121.9zM22.6 102.9c-0.4 0.6-2.1 3.3-1.7 6.2 0.3 1.9 1.4 3.7 3.5 5.3 7 5.3 13.2-0.2 13.4-0.4l37-36c8.4-6.2 12.9-15.9 12.9-28.1 0-19.4-15.8-35.3-35.3-35.3S17.1 30.4 17.1 49.8c0 10.7 4.8 20.8 13.2 27.5l0.3 0.2 5.1 5.4 12.9-12.5-10.6-11c-1.9-2.9-3-6.2-3-9.7 0-9.5 7.8-17.3 17.3-17.3s17.3 7.8 17.3 17.3c0 3.5-1 6.8-3 9.7l-0.3 0.4-10.6 11L22.6 102.9zM42.3 56.4l10.1 10.4 10.1-10.4c1.3-1.9 1.9-4.2 1.9-6.5 0-6.6-5.4-12-12-12s-12 5.4-12 12C40.4 52.2 41 54.4 42.3 56.4z" data-fill-palette-color="accent"></path></g></g></g></g></svg></g></svg></g><g></g></svg></g><defs></defs></svg><rect width="395.52" height="214.25757950468466" fill="none" stroke="none" visibility="hidden"></rect></g></svg></g></svg>